<svg class="img-fluid" id="outputsvg" xmlns="http://www.w3.org/2000/svg" width="100" height="100" viewBox="0 0 10240 10240">
    <g id="lVzMMaoilqYFk7tmjZJlxKj" fill="rgb(1,101,153)" stroke="rgb(1,101,153)" stroke-width="1" fill-rule="evenodd" style="transform: none;">
        <g>
            <path id="pHb4BbOEQ" d="M809 10015 C645 9971 543 9911 428 9793 C313 9675 246 9550 215 9393 C201 9322 199 8908 202 5085 C205 1025 206 852 223 795 C306 522 491 330 760 237 L855 205 5115 205 C9187 205 9377 205 9440 223 C9530 248 9673 321 9747 380 C9864 473 9960 620 10012 785 L10035 855 10037 5083 C10040 9245 10039 9312 10020 9407 C9984 9585 9876 9758 9735 9867 C9655 9928 9532 9991 9447 10014 C9395 10028 8959 10030 5145 10035 L900 10040 809 10015 M1239 8973 C1228 8958 1221 8941 1223 8935 C1311 8718 1382 8544 1399 8505 C1411 8477 1450 8385 1484 8300 C1600 8016 1736 7686 1899 7290 C1925 7226 1983 7087 2027 6980 C2071 6872 2135 6716 2169 6632 L2232 6480 2364 6480 L2495 6480 2512 6508 C2529 6537 2529 6537 2386 6886 C2307 7078 2230 7264 2214 7300 C2199 7335 2145 7466 2094 7590 C1812 8279 1691 8570 1589 8807 L1510 8990 1385 8995 L1260 9000 1239 8973 M3472 8686 C3039 8609 2730 8273 2669 7812 C2654 7701 2663 7399 2683 7310 C2725 7128 2781 7003 2877 6874 C3029 6671 3229 6535 3467 6473 C3611 6435 3874 6429 4047 6458 C4115 6470 4200 6490 4237 6502 L4305 6525 4307 6672 L4310 6819 4279 6838 L4248 6857 4184 6829 C4060 6772 3940 6747 3790 6747 C3643 6746 3570 6757 3470 6797 C3333 6850 3196 6967 3121 7093 C3072 7175 3022 7329 3009 7440 C2995 7551 3003 7756 3024 7843 C3086 8098 3255 8290 3485 8363 C3569 8390 3709 8401 3826 8390 C3966 8377 4045 8356 4156 8304 L4247 8262 4278 8282 L4310 8301 4310 8430 C4310 8552 4308 8559 4287 8574 C4249 8601 4112 8649 4018 8670 C3898 8696 3583 8705 3472 8686 M5873 8684 C5679 8633 5557 8504 5497 8291 C5476 8218 5475 8190 5472 7666 C5469 7159 5470 7116 5485 7098 C5501 7082 5518 7080 5630 7080 C5751 7080 5759 7081 5774 7102 C5787 7121 5790 7183 5790 7579 C5790 8097 5796 8167 5851 8270 C5906 8374 5977 8413 6110 8413 C6275 8413 6386 8328 6443 8159 L6469 8083 6470 7607 C6471 7024 6453 7080 6640 7080 C6761 7080 6769 7081 6784 7102 C6798 7121 6800 7211 6800 7872 C6800 8606 6799 8620 6780 8640 C6762 8657 6746 8660 6636 8660 C6520 8660 6512 8658 6491 8636 C6476 8620 6470 8601 6470 8571 L6470 8529 6414 8574 C6343 8633 6273 8667 6193 8685 C6109 8704 5945 8704 5873 8684 M7858 8684 C7791 8665 7701 8616 7650 8573 C7625 8551 7609 8543 7608 8551 C7608 8559 7606 8577 7605 8591 C7604 8606 7595 8628 7585 8639 C7568 8658 7555 8660 7440 8660 C7329 8660 7310 8657 7296 8641 C7281 8624 7280 8531 7280 7508 C7280 6440 7280 6392 7298 6376 C7313 6362 7339 6360 7442 6360 C7563 6360 7569 6360 7587 6383 C7604 6406 7605 6430 7604 6823 C7603 7052 7604 7240 7607 7240 C7609 7240 7636 7217 7666 7190 C7782 7084 7937 7034 8125 7043 C8263 7049 8344 7074 8444 7140 C8531 7199 8586 7259 8634 7350 C8717 7508 8739 7608 8739 7832 C8740 8065 8705 8214 8614 8369 C8570 8444 8472 8550 8402 8595 C8305 8660 8202 8689 8045 8695 C7941 8698 7897 8696 7858 8684 M7914 8410 C7750 8377 7633 8239 7608 8049 C7592 7920 7604 7717 7635 7619 C7687 7455 7802 7353 7963 7328 C8176 7295 8338 7415 8394 7647 C8416 7739 8411 7982 8386 8073 C8343 8225 8246 8348 8137 8388 C8068 8414 7976 8423 7914 8410 M4720 8644 C4700 8629 4700 8617 4700 7510 C4700 6440 4700 6392 4718 6376 C4733 6363 4759 6360 4861 6360 C4979 6360 4987 6361 5008 6383 L5030 6406 5030 7511 L5030 8616 5005 8638 C4982 8657 4968 8660 4860 8660 C4766 8660 4735 8656 4720 8644 M6484 5270 C6011 5223 5677 5043 5465 4722 C5318 4499 5236 4228 5210 3880 C5204 3799 5200 3245 5200 2508 L5200 1272 5240 1236 L5280 1200 5502 1200 L5725 1200 5764 1239 L5802 1278 5801 2449 C5799 3620 5803 3793 5835 3976 C5903 4369 6094 4597 6429 4687 C6517 4711 6541 4713 6730 4713 C6965 4713 7028 4701 7178 4628 C7284 4577 7407 4460 7465 4355 C7535 4228 7581 4072 7599 3899 C7605 3844 7610 3278 7611 2545 L7613 1285 7653 1242 L7694 1199 7917 1199 L8140 1199 8180 1241 L8220 1283 8217 2569 C8214 3706 8211 3867 8197 3965 C8140 4335 8036 4598 7861 4810 C7639 5078 7301 5233 6857 5269 C6699 5282 6607 5282 6484 5270 M2640 5181 L2600 5142 2600 3451 L2600 1760 2085 1760 L1570 1760 1530 1721 L1489 1683 1490 1483 L1490 1284 1532 1242 L1575 1199 2909 1199 L4243 1200 4281 1240 L4320 1281 4320 1482 L4320 1682 4281 1721 L4242 1759 3726 1759 L3210 1760 3210 3449 L3210 5138 3170 5179 L3130 5220 2905 5220 L2680 5220 2640 5181 "></path>
        </g>
    </g>
    <g id="lK6pMvdnebUJgQLJymQMAkj" fill="rgb(252,253,253)" stroke="rgb(252,253,253)" stroke-width="1" fill-rule="evenodd" style="transform: none;">
        <g>
            <path id="p18x4AiQ8C" d="M827 10230 C820 10224 804 10220 791 10220 C755 10219 597 10163 528 10125 C400 10055 251 9923 173 9809 C106 9712 44 9569 16 9450 C1 9386 1 853 16 790 C48 654 114 509 191 406 C245 334 365 217 430 173 C527 106 670 44 790 16 C853 1 9386 1 9450 16 C9585 48 9730 114 9833 191 C9905 245 10022 365 10066 430 C10133 527 10195 670 10223 790 C10238 853 10238 9386 10223 9450 C10195 9569 10133 9712 10066 9809 C10021 9875 9899 10000 9831 10049 C9720 10130 9574 10196 9452 10221 C9390 10233 843 10242 827 10230 M809 10015 C645 9971 543 9911 428 9793 C313 9675 246 9550 215 9393 C201 9322 199 8908 202 5085 C205 1025 206 852 223 795 C306 522 491 330 760 237 L855 205 5115 205 C9187 205 9377 205 9440 223 C9530 248 9673 321 9747 380 C9864 473 9960 620 10012 785 L10035 855 10037 5083 C10040 9245 10039 9312 10020 9407 C9984 9585 9876 9758 9735 9867 C9655 9928 9532 9991 9447 10014 C9395 10028 8959 10030 5145 10035 L900 10040 809 10015 M1239 8973 C1228 8958 1221 8941 1223 8935 C1311 8718 1382 8544 1399 8505 C1411 8477 1450 8385 1484 8300 C1600 8016 1736 7686 1899 7290 C1925 7226 1983 7087 2027 6980 C2071 6872 2135 6716 2169 6632 L2232 6480 2364 6480 L2495 6480 2512 6508 C2529 6537 2529 6537 2386 6886 C2307 7078 2230 7264 2214 7300 C2199 7335 2145 7466 2094 7590 C1812 8279 1691 8570 1589 8807 L1510 8990 1385 8995 L1260 9000 1239 8973 M3472 8686 C3039 8609 2730 8273 2669 7812 C2654 7701 2663 7399 2683 7310 C2725 7128 2781 7003 2877 6874 C3029 6671 3229 6535 3467 6473 C3611 6435 3874 6429 4047 6458 C4115 6470 4200 6490 4237 6502 L4305 6525 4307 6672 L4310 6819 4279 6838 L4248 6857 4184 6829 C4060 6772 3940 6747 3790 6747 C3643 6746 3570 6757 3470 6797 C3333 6850 3196 6967 3121 7093 C3072 7175 3022 7329 3009 7440 C2995 7551 3003 7756 3024 7843 C3086 8098 3255 8290 3485 8363 C3569 8390 3709 8401 3826 8390 C3966 8377 4045 8356 4156 8304 L4247 8262 4278 8282 L4310 8301 4310 8430 C4310 8552 4308 8559 4287 8574 C4249 8601 4112 8649 4018 8670 C3898 8696 3583 8705 3472 8686 M5873 8684 C5679 8633 5557 8504 5497 8291 C5476 8218 5475 8190 5472 7666 C5469 7159 5470 7116 5485 7098 C5501 7082 5518 7080 5630 7080 C5751 7080 5759 7081 5774 7102 C5787 7121 5790 7183 5790 7579 C5790 8097 5796 8167 5851 8270 C5906 8374 5977 8413 6110 8413 C6275 8413 6386 8328 6443 8159 L6469 8083 6470 7607 C6471 7024 6453 7080 6640 7080 C6761 7080 6769 7081 6784 7102 C6798 7121 6800 7211 6800 7872 C6800 8606 6799 8620 6780 8640 C6762 8657 6746 8660 6636 8660 C6520 8660 6512 8658 6491 8636 C6476 8620 6470 8601 6470 8571 L6470 8529 6414 8574 C6343 8633 6273 8667 6193 8685 C6109 8704 5945 8704 5873 8684 M7858 8684 C7791 8665 7701 8616 7650 8573 C7625 8551 7609 8543 7608 8551 C7608 8559 7606 8577 7605 8591 C7604 8606 7595 8628 7585 8639 C7568 8658 7555 8660 7440 8660 C7329 8660 7310 8657 7296 8641 C7281 8624 7280 8531 7280 7508 C7280 6440 7280 6392 7298 6376 C7313 6362 7339 6360 7442 6360 C7563 6360 7569 6360 7587 6383 C7604 6406 7605 6430 7604 6823 C7603 7052 7604 7240 7607 7240 C7609 7240 7636 7217 7666 7190 C7782 7084 7937 7034 8125 7043 C8263 7049 8344 7074 8444 7140 C8531 7199 8586 7259 8634 7350 C8717 7508 8739 7608 8739 7832 C8740 8065 8705 8214 8614 8369 C8570 8444 8472 8550 8402 8595 C8305 8660 8202 8689 8045 8695 C7941 8698 7897 8696 7858 8684 M7914 8410 C7750 8377 7633 8239 7608 8049 C7592 7920 7604 7717 7635 7619 C7687 7455 7802 7353 7963 7328 C8176 7295 8338 7415 8394 7647 C8416 7739 8411 7982 8386 8073 C8343 8225 8246 8348 8137 8388 C8068 8414 7976 8423 7914 8410 M4720 8644 C4700 8629 4700 8617 4700 7510 C4700 6440 4700 6392 4718 6376 C4733 6363 4759 6360 4861 6360 C4979 6360 4987 6361 5008 6383 L5030 6406 5030 7511 L5030 8616 5005 8638 C4982 8657 4968 8660 4860 8660 C4766 8660 4735 8656 4720 8644 M6484 5270 C6011 5223 5677 5043 5465 4722 C5318 4499 5236 4228 5210 3880 C5204 3799 5200 3245 5200 2508 L5200 1272 5240 1236 L5280 1200 5502 1200 L5725 1200 5764 1239 L5802 1278 5801 2449 C5799 3620 5803 3793 5835 3976 C5903 4369 6094 4597 6429 4687 C6517 4711 6541 4713 6730 4713 C6965 4713 7028 4701 7178 4628 C7284 4577 7407 4460 7465 4355 C7535 4228 7581 4072 7599 3899 C7605 3844 7610 3278 7611 2545 L7613 1285 7653 1242 L7694 1199 7917 1199 L8140 1199 8180 1241 L8220 1283 8217 2569 C8214 3706 8211 3867 8197 3965 C8140 4335 8036 4598 7861 4810 C7639 5078 7301 5233 6857 5269 C6699 5282 6607 5282 6484 5270 M2640 5181 L2600 5142 2600 3451 L2600 1760 2085 1760 L1570 1760 1530 1721 L1489 1683 1490 1483 L1490 1284 1532 1242 L1575 1199 2909 1199 L4243 1200 4281 1240 L4320 1281 4320 1482 L4320 1682 4281 1721 L4242 1759 3726 1759 L3210 1760 3210 3449 L3210 5138 3170 5179 L3130 5220 2905 5220 L2680 5220 2640 5181 "></path>
        </g>
    </g>
</svg>